# xmcd
#
# Track frame offsets:
#	150
#	25459
#	43584
#	60604
#	84984
#	99116
#	116267
#	134429
#	154321
#	172694
#	190774
#
# Disc length: 2787 seconds
#
# Revision: 1
# Processed by: cddbd v1.4PL0 Copyright (c) Steve Scherf et al.
# Submitted via: dBpowerAMP V4.0
#
DISCID=7f0ae10b
DTITLE=Toby Keith - Shock'n Y'all
DYEAR=1900
DGENRE=Country
TTITLE0=I Love This Bar
TTITLE1=Whiskey Girl
TTITLE2=American Soldier
TTITLE3=If I Was Jesus
TTITLE4=Time For Me To Ride
TTITLE5=Sweet
TTITLE6=Dont't Leave, I Think I Love You
TTITLE7=Nights I Can't Remember, Friends I'll Never Forget
TTITLE8=Baddest Boots
TTITLE9=The Taliban Song
TTITLE10=Weed With Willie
EXTD=the # 10 cut is The Critic and the #11 is The Taliban Song and the #12 is Weed With Willie. thank you.
EXTT0=
EXTT1=
EXTT2=
EXTT3=
EXTT4=
EXTT5=
EXTT6=
EXTT7=
EXTT8=
EXTT9=
EXTT10=
PLAYORDER=
